<?xml version="1.0" standalone="no"?>
<!DOCTYPE svg PUBLIC "-//W3C//DTD SVG 20010904//EN"
 "http://www.w3.org/TR/2001/REC-SVG-20010904/DTD/svg10.dtd">
<svg version="1.0" xmlns="http://www.w3.org/2000/svg"
 width="389.000000pt" height="389.000000pt" viewBox="0 0 389.000000 389.000000"
 preserveAspectRatio="xMidYMid meet">
<metadata>
Created by potrace 1.14, written by Peter Selinger 2001-2017
</metadata>
<g transform="translate(0.000000,389.000000) scale(0.100000,-0.100000)"
fill="#000000" stroke="none">
<path d="M1755 3870 c-61 -17 -145 -35 -211 -44 -11 -2 -26 -6 -33 -10 -6 -4
-23 -10 -38 -12 -14 -3 -36 -10 -47 -16 -12 -7 -28 -13 -36 -14 -33 -3 -133
-47 -183 -80 -146 -94 -313 -246 -369 -335 -20 -30 -60 -82 -89 -116 -30 -33
-64 -84 -76 -114 -53 -134 -85 -233 -113 -352 -34 -144 -38 -246 -16 -342 8
-33 19 -107 26 -165 11 -113 40 -225 70 -277 13 -22 15 -33 7 -33 -8 0 -7 -4
3 -11 12 -9 10 -10 -8 -6 -13 3 -22 3 -19 1 6 -6 -36 -51 -44 -48 -6 3 -3 -76
5 -121 3 -16 6 -34 5 -39 0 -5 3 -12 8 -15 12 -9 52 -86 68 -132 8 -22 21 -95
30 -162 8 -67 25 -153 37 -192 11 -38 27 -90 34 -115 19 -63 94 -146 145 -161
34 -11 40 -17 49 -53 28 -113 60 -207 92 -268 10 -21 19 -41 20 -45 0 -5 5
-19 10 -33 5 -14 12 -37 15 -53 3 -15 10 -30 14 -33 5 -3 7 -10 3 -15 -3 -6 2
-26 11 -45 10 -20 20 -84 26 -157 6 -67 15 -130 20 -139 5 -10 9 -32 8 -50 0
-18 -3 -26 -6 -18 -2 8 -7 21 -9 29 -3 9 -17 -2 -39 -30 l-34 -44 1002 -3
c551 -1 1008 0 1015 3 6 2 12 9 12 15 0 6 -5 8 -11 4 -7 -4 -9 0 -5 14 7 21
-37 83 -56 79 -6 -1 -14 10 -18 24 -12 40 -21 470 -11 509 5 19 18 71 30 114
26 96 51 252 51 324 0 49 1 52 25 52 59 0 122 56 148 132 24 68 39 217 32 309
-6 66 -1 121 19 254 25 164 29 238 14 228 -5 -2 -8 2 -8 10 0 25 -34 57 -63
59 -21 2 -26 6 -20 18 12 23 13 295 2 332 -14 42 -20 87 -24 168 -4 89 -16
169 -26 176 -5 3 -9 21 -9 40 0 72 -125 330 -227 469 -117 159 -121 164 -176
191 -29 14 -68 41 -87 60 -34 32 -91 68 -157 99 -17 8 -48 26 -68 39 -20 14
-66 35 -103 47 -37 12 -96 35 -132 52 -113 50 -149 58 -285 63 -107 3 -142 0
-200 -16z"/>
</g>
</svg>
